<svg class="svg-icon" style="width: 1.02734375em; height: 1em;vertical-align: middle;fill: currentColor;overflow: hidden;" viewBox="0 0 1052 1024" version="1.1" xmlns="http://www.w3.org/2000/svg"><path d="M732.074667 378.936889h-36.977778v-71.68c0-98.958222-82.773333-179.256889-184.832-179.256889-102.030222 0-184.832 80.298667-184.832 179.228444v71.708445h-36.977778c-40.846222 0-73.955556 32.085333-73.955555 71.68v358.485333c0 39.623111 33.109333 71.708444 73.955555 71.708445h443.619556c40.846222 0 73.955556-32.085333 73.955555-71.68V450.616889c0-39.623111-33.109333-71.708444-73.955555-71.708445zM510.293333 701.582222c-40.846222 0-73.955556-32.085333-73.955555-71.708444s33.109333-71.68 73.955555-71.68c40.846222 0 73.955556 32.056889 73.955556 71.68s-33.109333 71.68-73.955556 71.68z m114.631111-322.645333H395.662222v-71.68c0-61.326222 51.399111-111.132444 114.631111-111.132445 63.203556 0 114.574222 49.806222 114.574223 111.104v71.708445z" fill="#333333" /></svg>